<svg width="200" height="48" viewBox="0 0 200 48" fill="none" xmlns="http://www.w3.org/2000/svg">
  <!-- Logo icon -->
  <circle cx="24" cy="24" r="24" fill="url(#gradient)" />
  
  <!-- Blockchain blocks -->
  <rect x="12" y="15" width="6" height="4" rx="1" fill="white" opacity="0.9" />
  <rect x="19" y="15" width="6" height="4" rx="1" fill="white" opacity="0.9" />
  <rect x="26" y="15" width="6" height="4" rx="1" fill="white" opacity="0.9" />
  
  <!-- Connecting lines -->
  <line x1="18" y1="17" x2="19" y2="17" stroke="white" stroke-width="1" opacity="0.7" />
  <line x1="25" y1="17" x2="26" y2="17" stroke="white" stroke-width="1" opacity="0.7" />
  
  <!-- Graduation cap -->
  <path d="M24 20L18 18V22C18 22.5523 20.6863 23 24 23C27.3137 23 30 22.5523 30 22V18L24 20Z" fill="white" opacity="0.9" />
  <path d="M24 20L16 17L24 14L32 17L24 20Z" fill="white" />
  
  <!-- Text -->
  <text x="58" y="20" font-family="Arial, sans-serif" font-size="18" font-weight="bold" fill="#1f2937">BlockchainEdu</text>
  <text x="58" y="35" font-family="Arial, sans-serif" font-size="12" fill="#6b7280">Aprende el futuro</text>
  
  <!-- Gradiente definition -->
  <defs>
    <linearGradient id="gradient" x1="0%" y1="0%" x2="100%" y2="100%">
      <stop offset="0%" style="stop-color:#6366f1;stop-opacity:1" />
      <stop offset="50%" style="stop-color:#8b5cf6;stop-opacity:1" />
      <stop offset="100%" style="stop-color:#ec4899;stop-opacity:1" />
    </linearGradient>
  </defs>
</svg>