<svg width="64" height="64" viewBox="0 0 64 64" fill="none" xmlns="http://www.w3.org/2000/svg">
  <!-- Fondo circular con gradiente -->
  <circle cx="32" cy="32" r="32" fill="url(#gradient)" />
  
  <!-- Blockchain blocks -->
  <rect x="12" y="20" width="12" height="8" rx="2" fill="white" opacity="0.9" />
  <rect x="26" y="20" width="12" height="8" rx="2" fill="white" opacity="0.9" />
  <rect x="40" y="20" width="12" height="8" rx="2" fill="white" opacity="0.9" />
  
  <!-- Connecting lines -->
  <line x1="24" y1="24" x2="26" y2="24" stroke="white" stroke-width="2" opacity="0.7" />
  <line x1="38" y1="24" x2="40" y2="24" stroke="white" stroke-width="2" opacity="0.7" />
  
  <!-- Graduation cap icon -->
  <path d="M32 34L20 30V38C20 40.2091 25.3726 42 32 42C38.6274 42 44 40.2091 44 38V30L32 34Z" fill="white" opacity="0.9" />
  <path d="M32 34L16 28L32 22L48 28L32 34Z" fill="white" />
  <path d="M44 28V34L46 35V27L44 28Z" fill="white" opacity="0.8" />
  
  <!-- Gradiente definition -->
  <defs>
    <linearGradient id="gradient" x1="0%" y1="0%" x2="100%" y2="100%">
      <stop offset="0%" style="stop-color:#6366f1;stop-opacity:1" />
      <stop offset="50%" style="stop-color:#8b5cf6;stop-opacity:1" />
      <stop offset="100%" style="stop-color:#ec4899;stop-opacity:1" />
    </linearGradient>
  </defs>
</svg>