<svg width="32" height="32" viewBox="0 0 32 32" fill="none" xmlns="http://www.w3.org/2000/svg">
  <!-- Fondo circular con gradiente -->
  <circle cx="16" cy="16" r="16" fill="url(#gradient)" />
  
  <!-- Blockchain blocks simplificados -->
  <rect x="6" y="10" width="6" height="4" rx="1" fill="white" opacity="0.9" />
  <rect x="13" y="10" width="6" height="4" rx="1" fill="white" opacity="0.9" />
  <rect x="20" y="10" width="6" height="4" rx="1" fill="white" opacity="0.9" />
  
  <!-- Connecting lines -->
  <line x1="12" y1="12" x2="13" y2="12" stroke="white" stroke-width="1" opacity="0.7" />
  <line x1="19" y1="12" x2="20" y2="12" stroke="white" stroke-width="1" opacity="0.7" />
  
  <!-- Graduation cap simplificado -->
  <path d="M16 17L10 15V19C10 20.1 12.7 21 16 21C19.3 21 22 20.1 22 19V15L16 17Z" fill="white" opacity="0.9" />
  <path d="M16 17L8 14L16 11L24 14L16 17Z" fill="white" />
  
  <!-- Gradiente definition -->
  <defs>
    <linearGradient id="gradient" x1="0%" y1="0%" x2="100%" y2="100%">
      <stop offset="0%" style="stop-color:#6366f1;stop-opacity:1" />
      <stop offset="50%" style="stop-color:#8b5cf6;stop-opacity:1" />
      <stop offset="100%" style="stop-color:#ec4899;stop-opacity:1" />
    </linearGradient>
  </defs>
</svg>